<svg xmlns="http://www.w3.org/2000/svg" width="16.697" height="20.731" viewBox="0 0 16.697 20.731">
  <g id="Group_99" data-name="Group 99" transform="translate(3192.199 303.32)">
    <path id="Path_80" data-name="Path 80" d="M-3175.5-294.972a8.358,8.358,0,0,0-8.349-8.348,8.357,8.357,0,0,0-8.348,8.348,8.342,8.342,0,0,0,3.614,6.869l-1.865,2.966,2.875-.076,1.176,2.624,2.538-4.035h.021l2.537,4.035,1.177-2.624,2.875.076-1.865-2.966A8.345,8.345,0,0,0-3175.5-294.972Zm-14.7,0a6.356,6.356,0,0,1,6.348-6.348,6.356,6.356,0,0,1,6.349,6.348,6.356,6.356,0,0,1-6.349,6.349A6.356,6.356,0,0,1-3190.2-294.972Z" fill="#da0030"/>
    <path id="Path_81" data-name="Path 81" d="M-3186.494-290.9l2.643-1.389,2.643,1.389-.5-2.943,2.138-2.084-2.955-.429-1.322-2.678-1.322,2.678-2.955.429,2.138,2.084Z" fill="#da0030"/>
  </g>
</svg>
