<svg xmlns="http://www.w3.org/2000/svg" width="16.698" height="16.697" viewBox="0 0 16.698 16.697">
  <g id="Group_98" data-name="Group 98" transform="translate(3105.327 331.903)">
    <g id="Group_79" data-name="Group 79">
      <path id="Path_78" data-name="Path 78" d="M-3097.967-320.361l-3.114-3.114,1.414-1.414,1.7,1.7,3.677-3.677,1.414,1.414Z" fill="#da0030"/>
    </g>
    <g id="Group_80" data-name="Group 80">
      <path id="Path_79" data-name="Path 79" d="M-3096.978-315.206a8.358,8.358,0,0,1-8.349-8.348,8.358,8.358,0,0,1,8.349-8.349,8.359,8.359,0,0,1,8.349,8.349A8.359,8.359,0,0,1-3096.978-315.206Zm0-14.7a6.356,6.356,0,0,0-6.349,6.349,6.356,6.356,0,0,0,6.349,6.348,6.357,6.357,0,0,0,6.349-6.348A6.357,6.357,0,0,0-3096.978-329.9Z" fill="#da0030"/>
    </g>
  </g>
</svg>
