<svg xmlns="http://www.w3.org/2000/svg" width="14.749" height="20.537" viewBox="0 0 14.749 20.537">
  <g id="Group_101" data-name="Group 101" transform="translate(1800.5 -77.5)">
    <g id="Group_96" data-name="Group 96" transform="translate(-1800.5 77.5)">
      <path id="Path_91" data-name="Path 91" d="M-1793.125,98.037l-.542-.578c-.279-.3-6.833-7.352-6.833-12.584a7.383,7.383,0,0,1,7.375-7.375,7.383,7.383,0,0,1,7.375,7.375c0,5.232-6.554,12.286-6.833,12.584Zm0-19.052a5.9,5.9,0,0,0-5.89,5.89c0,3.836,4.339,9.176,5.89,10.961,1.55-1.785,5.89-7.126,5.89-10.961A5.9,5.9,0,0,0-1793.125,78.985Z" transform="translate(1800.5 -77.5)" fill="#e10034"/>
    </g>
    <g id="Group_97" data-name="Group 97" transform="translate(-1795.897 82.103)">
      <circle id="Ellipse_7" data-name="Ellipse 7" cx="2.772" cy="2.772" r="2.772" transform="translate(0 0)" fill="#e10034"/>
    </g>
  </g>
</svg>
