<svg xmlns="http://www.w3.org/2000/svg" width="202" height="55.364" viewBox="0 0 202 55.364">
  <g id="Group_73" data-name="Group 73" transform="translate(-147.488 -107.667)">
    <g id="Group_38" data-name="Group 38" transform="translate(147.488 107.667)">
      <g id="Group_33" data-name="Group 33" transform="translate(31.699 0.004)">
        <path id="Path_30" data-name="Path 30" d="M202.248,123.944l-4.419-15.09a1.639,1.639,0,0,0-3.149.913L199.43,126.1l.014.02a1.5,1.5,0,0,0,.208.436c.016.028.037.048.054.076a1.62,1.62,0,0,0,.327.331.035.035,0,0,1,.016.013,1.855,1.855,0,0,0,.42.209c.024,0,.055.02.084.025a1.518,1.518,0,0,0,.47.068h.03l17-.523a1.649,1.649,0,0,0,1.591-1.692,1.671,1.671,0,0,0-.677-1.277,1.649,1.649,0,0,0-1.014-.311Z" transform="translate(-194.614 -107.673)" fill="#111f41"/>
      </g>
      <g id="Group_34" data-name="Group 34" transform="translate(1.463)">
        <path id="Path_31" data-name="Path 31" d="M167.068,123.934l-15.713-.462a1.639,1.639,0,1,0-.1,3.277l17,.531.022-.006a1.638,1.638,0,0,0,.48-.063c.034-.009.057-.021.087-.029a1.7,1.7,0,0,0,.418-.207l.014-.015a1.6,1.6,0,0,0,.33-.334c.012-.021.036-.045.052-.07a1.593,1.593,0,0,0,.208-.428l.013-.028,4.752-16.337a1.639,1.639,0,0,0-2.541-1.781,1.657,1.657,0,0,0-.61.868Z" transform="translate(-149.664 -107.667)" fill="#111f41"/>
      </g>
      <g id="Group_35" data-name="Group 35" transform="translate(0 22.581)">
        <path id="Path_32" data-name="Path 32" d="M161.19,153.086l-5.3,14.8A1.64,1.64,0,1,0,158.98,169l5.755-16c0-.012,0-.026,0-.026a1.669,1.669,0,0,0,.089-.475c0-.03,0-.061,0-.092a1.6,1.6,0,0,0-.072-.462.108.108,0,0,1,0-.02,1.8,1.8,0,0,0-.215-.412c-.019-.022-.033-.049-.054-.073a1.487,1.487,0,0,0-.338-.33.208.208,0,0,1-.026-.021l-14.068-9.567a1.641,1.641,0,0,0-2.276.432,1.664,1.664,0,0,0-.205,1.433,1.631,1.631,0,0,0,.637.848Z" transform="translate(-147.488 -141.237)" fill="#da0030"/>
      </g>
      <g id="Group_36" data-name="Group 36" transform="translate(13.82 41.664)">
        <path id="Path_33" data-name="Path 33" d="M183.109,173.349l12.44,9.612a1.64,1.64,0,1,0,2.013-2.589L184.12,169.948a.166.166,0,0,0-.022-.007,1.622,1.622,0,0,0-.42-.229c-.031-.012-.06-.017-.09-.028a1.553,1.553,0,0,0-.46-.079.069.069,0,0,1-.022,0,1.742,1.742,0,0,0-.46.079c-.024.01-.057.015-.083.028a1.517,1.517,0,0,0-.42.222.124.124,0,0,1-.026.016l-13.448,10.423a1.637,1.637,0,0,0,1.006,2.933,1.619,1.619,0,0,0,1-.342Z" transform="translate(-168.034 -169.606)" fill="#111f41"/>
      </g>
      <g id="Group_37" data-name="Group 37" transform="translate(40.358 22.576)">
        <path id="Path_34" data-name="Path 34" d="M211.115,153.085l12.986-8.861a1.639,1.639,0,1,0-1.842-2.712L208.2,151.075l-.016.017a1.674,1.674,0,0,0-.349.332c-.02.026-.033.051-.052.076a1.6,1.6,0,0,0-.215.414s0,.008-.008.019a1.8,1.8,0,0,0-.067.463c0,.026,0,.059,0,.089a1.623,1.623,0,0,0,.079.468c0,.007.007.021.011.03l5.753,16.009a1.648,1.648,0,0,0,2.1.99,1.665,1.665,0,0,0,1-1.039,1.631,1.631,0,0,0-.017-1.061Z" transform="translate(-207.487 -141.229)" fill="#111f41"/>
      </g>
    </g>
    <g id="Group_66" data-name="Group 66" transform="translate(212.982 122.343)">
      <g id="Group_56" data-name="Group 56">
        <g id="Group_39" data-name="Group 39" transform="translate(0 2.547)">
          <path id="Path_35" data-name="Path 35" d="M253.6,133.874l-.27,1.518a.285.285,0,0,1-.3.258H253c-.42-.03-2.136-.166-3.159-.166-.722,0-1.34.12-1.34.963,0,.317.151.468.77.872l1.745,1.144a2.91,2.91,0,0,1,1.61,2.407c0,2.753-2.152,3.854-4.679,3.854a10.947,10.947,0,0,1-2.843-.333.275.275,0,0,1-.244-.256v-.044l.258-1.474a.313.313,0,0,1,.315-.287h.045c.6.06,2.244.18,2.828.18.845,0,1.553-.27,1.553-1.234,0-.33-.182-.661-.784-1.051l-1.85-1.22a2.761,2.761,0,0,1-1.357-2.334c0-2.631,2.155-3.4,4.424-3.4a15.5,15.5,0,0,1,3.129.332.207.207,0,0,1,.182.209Z" transform="translate(-244.854 -133.272)" fill="#111f41"/>
        </g>
        <g id="Group_40" data-name="Group 40" transform="translate(8.52 2.547)">
          <path id="Path_36" data-name="Path 36" d="M267.072,136.9l-.016.134c-.315,2.847-2.526,3.644-5.129,3.644-.363,0-.843-.032-1.22-.046l-.631,3.657a.384.384,0,0,1-.36.3h-1.942a.232.232,0,0,1-.254-.24V144.3l1.791-10.111c.087-.511.312-.646.794-.723a23.409,23.409,0,0,1,3.1-.194c2.286,0,3.9.9,3.9,3.055C267.1,136.506,267.088,136.7,267.072,136.9Zm-4.213-1.489c-.209,0-1.053.032-1.232.046l-.543,3.066c.165.017,1.053.033,1.217.033,1.342,0,2.078-.482,2.2-1.523l.013-.134a1.61,1.61,0,0,0,.017-.283C264.53,135.755,264,135.408,262.859,135.408Z" transform="translate(-257.52 -133.272)" fill="#111f41"/>
        </g>
        <g id="Group_41" data-name="Group 41" transform="translate(18.371 2.547)">
          <path id="Path_37" data-name="Path 37" d="M281.5,138.1l-.316,1.788c-.617,3.523-2.485,4.833-5.311,4.833a3.441,3.441,0,0,1-3.7-3.687,6.2,6.2,0,0,1,.108-1.146l.315-1.788c.661-3.733,2.8-4.83,5.311-4.83a3.39,3.39,0,0,1,3.7,3.655A6.872,6.872,0,0,1,281.5,138.1Zm-4-2.574c-1.263,0-1.971.69-2.3,2.574l-.318,1.788a6,6,0,0,0-.1,1.054c0,1.127.513,1.52,1.5,1.52,1.265,0,2-.768,2.319-2.574l.317-1.788a6.632,6.632,0,0,0,.1-.993C279.013,135.981,278.5,135.528,277.493,135.528Z" transform="translate(-272.166 -133.272)" fill="#111f41"/>
        </g>
        <g id="Group_42" data-name="Group 42" transform="translate(28.093 2.547)">
          <path id="Path_38" data-name="Path 38" d="M293.69,140l1.518,4.244a.34.34,0,0,1,.03.12c0,.12-.089.225-.27.225h-2.181c-.165,0-.182-.15-.243-.3l-1.353-3.809h-.015c-.059,0-.149.017-.27.017-.316,0-.782-.032-1.07-.032l-.662,3.824a.381.381,0,0,1-.361.3h-1.955a.229.229,0,0,1-.241-.24v-.06l1.775-10.1c.09-.511.317-.646.8-.723a22.638,22.638,0,0,1,3.1-.194c2.257,0,3.942.841,3.942,2.872A3.745,3.745,0,0,1,293.69,140Zm-1.791-4.544c-.212,0-.993.029-1.176.044l-.509,2.889c.166.015.887.03,1.052.03,1.474,0,2.393-.361,2.393-1.941C293.66,135.693,293.071,135.454,291.9,135.454Z" transform="translate(-286.618 -133.272)" fill="#111f41"/>
        </g>
        <g id="Group_43" data-name="Group 43" transform="translate(38.867 2.682)">
          <path id="Path_39" data-name="Path 39" d="M310.984,133.759l-.27,1.55a.39.39,0,0,1-.377.285H307.9l-1.533,8.758a.385.385,0,0,1-.361.3h-1.972a.228.228,0,0,1-.241-.24v-.06l1.532-8.758h-2.45a.215.215,0,0,1-.24-.226v-.059l.268-1.55a.356.356,0,0,1,.348-.286h7.462a.254.254,0,0,1,.27.24Z" transform="translate(-302.636 -133.473)" fill="#111f41"/>
        </g>
        <g id="Group_44" data-name="Group 44" transform="translate(45.621 2.547)">
          <path id="Path_40" data-name="Path 40" d="M321.868,144.586h-2.061a.257.257,0,0,1-.254-.272l-.1-2.466h-3.086l-.979,2.466a.4.4,0,0,1-.344.272h-2.154c-.135,0-.21-.075-.21-.18a.391.391,0,0,1,.031-.135l3.883-9.328a2.673,2.673,0,0,1,2.8-1.67c1.039,0,2.091.224,2.181,1.67l.6,9.328v.015A.293.293,0,0,1,321.868,144.586Zm-2.664-8.952c0-.151-.011-.226-.148-.226s-.2.075-.256.226l-1.657,4.153h2.243Z" transform="translate(-312.676 -133.272)" fill="#111f41"/>
        </g>
        <g id="Group_55" data-name="Group 55" transform="translate(61.444)">
          <g id="Group_45" data-name="Group 45" transform="translate(0 2.685)">
            <path id="Path_41" data-name="Path 41" d="M340.64,133.761l-1.869,10.593a.364.364,0,0,1-.345.3h-2.017a.206.206,0,0,1-.209-.223v-.076l1.868-10.593a.318.318,0,0,1,.313-.284H340.4a.217.217,0,0,1,.242.225Z" transform="translate(-336.2 -133.477)" fill="#111f41"/>
          </g>
          <g id="Group_46" data-name="Group 46" transform="translate(4.004 2.685)">
            <path id="Path_42" data-name="Path 42" d="M351.644,133.9c-.06.393-.149.917-.238,1.368a1.105,1.105,0,0,1-.2.393l-5.235,6.5a.345.345,0,0,0-.1.193c0,.047.044.076.147.076h3.913a.229.229,0,0,1,.255.225v.046l-.283,1.654a.386.386,0,0,1-.361.3h-6.833c-.313,0-.555-.1-.555-.376,0-.029.013-.059.013-.089l.229-1.2a1.332,1.332,0,0,1,.328-.659l5.16-6.352a.351.351,0,0,0,.094-.179c0-.062-.048-.091-.153-.091h-3.579a.234.234,0,0,1-.257-.241v-.045l.3-1.656a.35.35,0,0,1,.344-.284h6.484c.288,0,.526.118.526.345Z" transform="translate(-342.152 -133.477)" fill="#111f41"/>
          </g>
          <g id="Group_47" data-name="Group 47" transform="translate(13.526 2.549)">
            <path id="Path_43" data-name="Path 43" d="M365.472,133.845l-.285,1.6c-.03.165-.122.2-.256.2h-.045c-.724-.03-1.836-.121-3.116-.121-1.217,0-2.059.482-2.422,2.557l-.33,1.883a6.58,6.58,0,0,0-.1.992c0,1.25.615,1.565,1.339,1.565.419,0,.811-.015,1.173-.046l.6-3.461a.365.365,0,0,1,.342-.3H364.3a.229.229,0,0,1,.24.241v.059l-.887,5.058c-.03.208-.12.3-.361.344a17.171,17.171,0,0,1-3.433.317,3.429,3.429,0,0,1-3.551-3.659,6.275,6.275,0,0,1,.107-1.125l.329-1.868c.739-4.15,2.98-4.8,5.431-4.8a13.391,13.391,0,0,1,3.087.347c.1.029.209.073.209.18Z" transform="translate(-356.308 -133.275)" fill="#111f41"/>
          </g>
          <g id="Group_48" data-name="Group 48" transform="translate(22.917 2.685)">
            <path id="Path_44" data-name="Path 44" d="M376.542,142.88l-.256,1.4c-.029.2-.123.274-.345.318a16.591,16.591,0,0,1-2.5.2c-1.654,0-3.172-.587-3.172-2.483a4.463,4.463,0,0,1,.074-.751l1.369-7.778a.385.385,0,0,1,.359-.3h1.974a.228.228,0,0,1,.24.24v.062l-1.371,7.778a2.087,2.087,0,0,0-.043.389c0,.482.256.633.827.633h2.588a.245.245,0,0,1,.256.254Z" transform="translate(-370.269 -133.477)" fill="#111f41"/>
          </g>
          <g id="Group_49" data-name="Group 49" transform="translate(29.942)">
            <path id="Path_45" data-name="Path 45" d="M386.159,129.771l-.2,1.114a.342.342,0,0,1-.346.272H382.7a.23.23,0,0,1-.255-.226v-.046l.194-1.114a.353.353,0,0,1,.345-.285h2.92a.233.233,0,0,1,.254.241Zm-1.007,2.683-1.867,10.593a.365.365,0,0,1-.346.3h-2.016a.206.206,0,0,1-.21-.223v-.076l1.867-10.593a.32.32,0,0,1,.315-.284h2.018a.217.217,0,0,1,.239.225Z" transform="translate(-380.713 -129.486)" fill="#111f41"/>
          </g>
          <g id="Group_50" data-name="Group 50" transform="translate(42.979)">
            <path id="Path_46" data-name="Path 46" d="M405.542,129.771l-.2,1.114a.342.342,0,0,1-.344.272h-2.921a.232.232,0,0,1-.256-.226v-.046l.2-1.114a.356.356,0,0,1,.346-.285h2.919a.233.233,0,0,1,.256.241Zm-1.01,2.683-1.865,10.593a.363.363,0,0,1-.344.3h-2.017a.209.209,0,0,1-.211-.223v-.076l1.865-10.593a.323.323,0,0,1,.317-.284h2.017a.215.215,0,0,1,.238.225Z" transform="translate(-400.095 -129.486)" fill="#111f41"/>
          </g>
          <g id="Group_51" data-name="Group 51" transform="translate(35.162 2.685)">
            <path id="Path_47" data-name="Path 47" d="M396.824,133.761l-.271,1.552a.391.391,0,0,1-.377.286h-2.434l-1.537,8.755a.381.381,0,0,1-.363.3h-1.969a.227.227,0,0,1-.241-.238v-.061l1.536-8.755h-2.453a.218.218,0,0,1-.241-.226v-.06l.268-1.552a.356.356,0,0,1,.35-.284h7.46a.253.253,0,0,1,.271.24Z" transform="translate(-388.474 -133.477)" fill="#111f41"/>
          </g>
          <g id="Group_52" data-name="Group 52" transform="translate(47.095 2.549)">
            <path id="Path_48" data-name="Path 48" d="M414.051,138.9a2.105,2.105,0,0,1,.993,1.818c0,3.145-2.767,4-5.385,4a18.975,18.975,0,0,1-2.753-.181c-.483-.091-.691-.225-.691-.648a3.219,3.219,0,0,1,.029-.33l1.608-9.147c.12-.677.378-.89.979-.978a24.369,24.369,0,0,1,2.753-.166c2.485,0,4.216.722,4.216,2.575A3.225,3.225,0,0,1,414.051,138.9Zm-2.919.887h-1.687l-.494,2.812c.24,0,1.024.015,1.236.015,1.246,0,2.342-.3,2.342-1.788C412.53,140.241,412.17,139.79,411.132,139.79Zm.242-4.409c-.242,0-.933,0-1.143.014l-.467,2.6h1.687a1.589,1.589,0,0,0,1.816-1.73C413.267,135.607,412.729,135.382,411.375,135.382Z" transform="translate(-406.214 -133.275)" fill="#111f41"/>
          </g>
          <g id="Group_53" data-name="Group 53" transform="translate(55.909 2.549)">
            <path id="Path_49" data-name="Path 49" d="M428.514,144.587h-2.066a.255.255,0,0,1-.254-.268l-.106-2.468H423l-.978,2.468a.4.4,0,0,1-.345.268h-2.152c-.134,0-.211-.073-.211-.179a.457.457,0,0,1,.031-.137l3.882-9.327a2.676,2.676,0,0,1,2.8-1.67c1.04,0,2.091.225,2.182,1.67l.6,9.327v.016A.292.292,0,0,1,428.514,144.587Zm-2.664-8.95c0-.15-.016-.225-.15-.225s-.2.075-.257.225l-1.657,4.154h2.244Z" transform="translate(-419.318 -133.275)" fill="#111f41"/>
          </g>
          <g id="Group_54" data-name="Group 54" transform="translate(66.321 2.549)">
            <path id="Path_50" data-name="Path 50" d="M443.538,133.878l-.27,1.518a.282.282,0,0,1-.3.256h-.031c-.422-.03-2.137-.165-3.159-.165-.724,0-1.343.12-1.343.964,0,.315.153.465.77.872l1.746,1.143a2.911,2.911,0,0,1,1.61,2.407c0,2.753-2.152,3.852-4.68,3.852a11.081,11.081,0,0,1-2.842-.331.275.275,0,0,1-.243-.256v-.043l.257-1.478a.311.311,0,0,1,.315-.283h.047c.6.059,2.241.18,2.825.18.846,0,1.553-.272,1.553-1.233,0-.332-.182-.663-.785-1.053l-1.849-1.222a2.759,2.759,0,0,1-1.355-2.329c0-2.635,2.152-3.4,4.425-3.4a15.539,15.539,0,0,1,3.129.332.208.208,0,0,1,.18.21Z" transform="translate(-434.797 -133.275)" fill="#111f41"/>
          </g>
        </g>
      </g>
      <g id="Group_65" data-name="Group 65" transform="translate(0 16.781)">
        <g id="Group_57" data-name="Group 57" transform="translate(0 2.312)">
          <path id="Path_51" data-name="Path 51" d="M254.048,169.186h-2.062a.256.256,0,0,1-.254-.27l-.108-2.468h-3.086l-.976,2.468a.4.4,0,0,1-.345.27h-2.153c-.135,0-.21-.075-.21-.18a.433.433,0,0,1,.03-.137l3.882-9.327a2.682,2.682,0,0,1,2.8-1.671c1.038,0,2.092.227,2.181,1.671l.6,9.327v.016A.292.292,0,0,1,254.048,169.186Zm-2.663-8.952c0-.15-.015-.225-.151-.225s-.2.075-.258.225l-1.653,4.153h2.242Z" transform="translate(-244.854 -157.871)" fill="#111f41"/>
        </g>
        <g id="Group_58" data-name="Group 58" transform="translate(10.818 2.312)">
          <path id="Path_52" data-name="Path 52" d="M266.223,170.322l-1.232,1.693c-.107.165-.166.3-.332.3h-1.322a.2.2,0,0,1-.226-.2.267.267,0,0,1,.03-.107l.751-1.693c.087-.18.18-.286.345-.286h1.836c.121,0,.2.061.2.151A.248.248,0,0,1,266.223,170.322Zm3.877-11.878-.286,1.594c-.03.167-.122.2-.258.2h-.043c-.724-.029-1.838-.12-3.115-.12-1.218,0-2.062.484-2.422,2.557l-.331,1.883a6.45,6.45,0,0,0-.106.992c0,1.25.619,1.565,1.339,1.565.422,0,.812-.017,1.174-.044l.6-3.461a.369.369,0,0,1,.348-.3h1.925a.227.227,0,0,1,.241.238v.063l-.888,5.053c-.032.211-.12.3-.361.348a17.278,17.278,0,0,1-3.43.318,3.428,3.428,0,0,1-3.553-3.657,6.108,6.108,0,0,1,.106-1.129l.33-1.867c.739-4.152,2.98-4.8,5.435-4.8a13.486,13.486,0,0,1,3.081.346c.107.029.213.077.213.181Z" transform="translate(-260.936 -157.871)" fill="#111f41"/>
        </g>
        <g id="Group_59" data-name="Group 59" transform="translate(20.161 2.312)">
          <path id="Path_53" data-name="Path 53" d="M283.149,158.369l-.258,1.4a.369.369,0,0,1-.347.3h-3.053c-.616,0-.99.119-1.144,1.008l-.239,1.384H282a.232.232,0,0,1,.24.254v.047l-.24,1.43a.386.386,0,0,1-.362.3h-3.9l-.284,1.595a2.158,2.158,0,0,0-.047.391c0,.48.258.632.828.632H281.3a.243.243,0,0,1,.254.255v.047l-.254,1.4a.35.35,0,0,1-.348.316,18.024,18.024,0,0,1-2.919.2c-1.565,0-3.2-.558-3.2-2.5a4.23,4.23,0,0,1,.076-.737l.887-5c.512-2.919,2.181-3.22,4.242-3.22a16.541,16.541,0,0,1,2.859.2c.183.029.269.074.269.21C283.16,158.309,283.149,158.338,283.149,158.369Z" transform="translate(-274.827 -157.871)" fill="#111f41"/>
        </g>
        <g id="Group_60" data-name="Group 60" transform="translate(28.169 2.45)">
          <path id="Path_54" data-name="Path 54" d="M297.456,158.361l-1.82,10.323a.7.7,0,0,1-.662.569H293.71a.779.779,0,0,1-.827-.468l-2.5-5.927c-.046-.089-.075-.121-.121-.121s-.074.032-.089.121l-1.069,6.094a.381.381,0,0,1-.361.3h-1.774a.231.231,0,0,1-.24-.254v-.047l1.8-10.306a.719.719,0,0,1,.677-.57h1.143a.8.8,0,0,1,.814.465l2.586,6.2c.046.089.046.12.091.12s.089-.032.108-.136l1.127-6.364a.351.351,0,0,1,.346-.285H297.2a.239.239,0,0,1,.255.237Z" transform="translate(-286.731 -158.076)" fill="#111f41"/>
        </g>
        <g id="Group_61" data-name="Group 61" transform="translate(39.676 2.45)">
          <path id="Path_55" data-name="Path 55" d="M312.19,158.361l-.272,1.549a.384.384,0,0,1-.373.287h-2.438l-1.536,8.756a.382.382,0,0,1-.36.3h-1.972a.229.229,0,0,1-.241-.242v-.059l1.536-8.756h-2.453a.218.218,0,0,1-.241-.225v-.061l.271-1.549a.353.353,0,0,1,.346-.285h7.462a.255.255,0,0,1,.272.237Z" transform="translate(-303.838 -158.076)" fill="#111f41"/>
        </g>
        <g id="Group_62" data-name="Group 62" transform="translate(57.537 2.312)">
          <path id="Path_56" data-name="Path 56" d="M337.46,164.6l1.524,4.244a.4.4,0,0,1,.03.118c0,.121-.089.227-.27.227h-2.185c-.165,0-.18-.149-.24-.3l-1.353-3.805h-.015c-.06,0-.151.014-.27.014-.316,0-.783-.031-1.068-.031l-.661,3.822a.389.389,0,0,1-.359.3h-1.958a.229.229,0,0,1-.24-.242v-.059l1.773-10.1c.092-.51.315-.646.8-.72a21.768,21.768,0,0,1,3.1-.2c2.257,0,3.942.842,3.942,2.875A3.742,3.742,0,0,1,337.46,164.6Zm-1.789-4.544c-.211,0-.992.03-1.174.046l-.511,2.89c.165.014.887.029,1.053.029,1.472,0,2.391-.362,2.391-1.94C337.431,160.294,336.843,160.053,335.671,160.053Z" transform="translate(-330.392 -157.871)" fill="#111f41"/>
        </g>
        <g id="Group_63" data-name="Group 63" transform="translate(66.608 2.312)">
          <path id="Path_57" data-name="Path 57" d="M353.07,169.186h-2.061a.26.26,0,0,1-.259-.27l-.1-2.468h-3.088l-.977,2.468a.4.4,0,0,1-.344.27h-2.153c-.135,0-.21-.075-.21-.18a.547.547,0,0,1,.028-.137l3.886-9.327a2.675,2.675,0,0,1,2.8-1.671c1.037,0,2.092.227,2.183,1.671l.6,9.327v.016A.292.292,0,0,1,353.07,169.186Zm-2.664-8.952c0-.15-.015-.225-.151-.225s-.194.075-.255.225l-1.654,4.153h2.242Z" transform="translate(-343.877 -157.871)" fill="#111f41"/>
        </g>
        <g id="Group_64" data-name="Group 64" transform="translate(47.755)">
          <path id="Path_58" data-name="Path 58" d="M325.809,157.168l-1.187,6.7c-.677,3.777-2.726,4.335-5.118,4.335-2.107,0-3.655-.98-3.655-3.266a5.511,5.511,0,0,1,.089-1.068l1.19-6.7a.353.353,0,0,1,.348-.285h1.969a.24.24,0,0,1,.256.237v.048l-1.188,6.7a4.946,4.946,0,0,0-.09.889c0,.9.42,1.291,1.473,1.291,1.356,0,1.879-.646,2.153-2.179l1.188-6.7a.352.352,0,0,1,.344-.285h1.958a.244.244,0,0,1,.27.237Zm-1.741-2.448-.2,1.111a.343.343,0,0,1-.347.272H319.61a.229.229,0,0,1-.254-.226v-.046l.2-1.111a.354.354,0,0,1,.346-.286h3.914a.233.233,0,0,1,.256.241Z" transform="translate(-315.849 -154.434)" fill="#111f41"/>
        </g>
      </g>
    </g>
  </g>
</svg>
