<svg xmlns="http://www.w3.org/2000/svg" width="64.368" height="107.096" viewBox="0 0 64.368 107.096">
  <g id="Group_105" data-name="Group 105" transform="translate(64.368 107.096) rotate(180)">
    <path id="Path_3" data-name="Path 3" d="M235.87,172.409l-19.658,54.952a6.087,6.087,0,1,0,11.455,4.12l21.372-59.4c0-.045,0-.095,0-.095a6.274,6.274,0,0,0,.33-1.763c0-.115,0-.227,0-.342a5.768,5.768,0,0,0-.27-1.716.314.314,0,0,1-.013-.075,6.616,6.616,0,0,0-.8-1.531c-.07-.082-.122-.182-.2-.272a5.371,5.371,0,0,0-1.259-1.224c-.033-.027-.065-.052-.09-.077l-52.228-35.521a6.1,6.1,0,0,0-8.456,1.606,6.181,6.181,0,0,0-.757,5.319,6.038,6.038,0,0,0,2.365,3.149Z" transform="translate(-185.005 -128.418)" fill="#da0030"/>
  </g>
</svg>
