<svg xmlns="http://www.w3.org/2000/svg" width="145.484" height="242.058" viewBox="0 0 145.484 242.058">
  <path id="Path_59" data-name="Path 59" d="M262.46,240.667l-44.437,124.2a13.761,13.761,0,1,0,25.9,9.319L292.21,239.933c0-.1.011-.215.011-.215a14,14,0,0,0,.751-3.985c0-.254-.011-.514-.011-.773a13.42,13.42,0,0,0-.6-3.877.9.9,0,0,1-.034-.169,15.065,15.065,0,0,0-1.806-3.46c-.158-.186-.277-.412-.457-.615a12.473,12.473,0,0,0-2.839-2.771,1.79,1.79,0,0,1-.214-.175L168.964,143.614a13.769,13.769,0,0,0-19.1,3.629,13.959,13.959,0,0,0-1.721,12.028,13.686,13.686,0,0,0,5.345,7.112Z" transform="translate(-147.488 -141.237)" fill="#da0030"/>
</svg>
