<svg xmlns="http://www.w3.org/2000/svg" width="24" height="22.384" viewBox="0 0 24 22.384">
  <g id="Group_72" data-name="Group 72" transform="translate(550.73 -437.032)">
    <path id="Path_68" data-name="Path 68" d="M-527.1,441.542a1.671,1.671,0,0,0-1.306-.624h-17.61l-.253-1.258a1.9,1.9,0,0,0-1.021-1.335l-2.439-1.22a.689.689,0,0,0-.925.308.689.689,0,0,0,.308.925l2.439,1.22a.535.535,0,0,1,.286.374l.365,1.811v0l1.838,9.133v0l.4,1.975a1.707,1.707,0,0,0,1.669,1.367h13.68a.689.689,0,0,0,.689-.689.689.689,0,0,0-.689-.689h-13.68a.325.325,0,0,1-.317-.26l-.232-1.154h13.947a1.688,1.688,0,0,0,1.641-1.324l1.546-7.158A1.671,1.671,0,0,0-527.1,441.542Zm-1.013,1.118-1.546,7.158a.3.3,0,0,1-.293.237H-544.18l-1.562-7.758h17.332a.3.3,0,0,1,.233.111A.3.3,0,0,1-528.116,442.66Z" fill="#707070"/>
    <path id="Path_69" data-name="Path 69" d="M-509.334,462.024h-8.56a.689.689,0,0,0-.689.689.689.689,0,0,0,.689.689h8.56a.689.689,0,0,0,.689-.689A.689.689,0,0,0-509.334,462.024Z" transform="translate(-23.283 -18.101)" fill="#707070"/>
    <path id="Path_70" data-name="Path 70" d="M-508.592,473.253h-7.649a.689.689,0,0,0-.689.689.689.689,0,0,0,.689.689h7.649a.689.689,0,0,0,.689-.689A.689.689,0,0,0-508.592,473.253Z" transform="translate(-24.48 -26.234)" fill="#707070"/>
    <path id="Path_71" data-name="Path 71" d="M-519.568,502.207a2.209,2.209,0,0,0-2.207,2.207,2.209,2.209,0,0,0,2.207,2.207,2.209,2.209,0,0,0,2.207-2.207A2.21,2.21,0,0,0-519.568,502.207Zm0,3.035a.829.829,0,0,1-.828-.828.829.829,0,0,1,.828-.829.829.829,0,0,1,.829.829A.829.829,0,0,1-519.568,505.242Z" transform="translate(-20.971 -47.205)" fill="#707070"/>
    <path id="Path_72" data-name="Path 72" d="M-492.486,502.207a2.21,2.21,0,0,0-2.207,2.207,2.209,2.209,0,0,0,2.207,2.207,2.209,2.209,0,0,0,2.207-2.207A2.209,2.209,0,0,0-492.486,502.207Zm0,3.035a.829.829,0,0,1-.829-.828.829.829,0,0,1,.829-.829.829.829,0,0,1,.828.829A.829.829,0,0,1-492.486,505.242Z" transform="translate(-40.586 -47.205)" fill="#707070"/>
  </g>
</svg>
